,
.   http://www.scenetime.com/signup.php  ---&gt;  Hottest scene tracker on the net !!!  

    Join Now   http://www.scenetime.com/signup.php

    seed back for speed


 



...................................NFO:.................................................[pre][img]http://s3.imgimg.de/uploads/cover7a2cf096png.png[/img]   
            
*******************************************************************************
                 The.Three.Musketeers.2011.TS.XviD-PRESTiGE
*******************************************************************************

-------------------------------------------------------------------------------
                              General Information
-------------------------------------------------------------------------------

TiTLE............: The.Three.Musketeers.2011.TS.XviD-PRESTiGE

iMDB.............: http://www.imdb.com/title/tt1509767/

GENRE............: Action | Adventure | Romance 

LANGUAGE.........: English 

FORMAT...........: AVi

SOURCE...........: iLLUMiNATi MANY THANKS!!!

FiLE SiZE........: 797 MB

SAMPLE iNCLUDED..: Yes

SUBS.............: NoNE

DURATiON.........: 1h 45mn

ENCODED by.......: [b][color=maroon]akosipalos[/color][/b]


ViDEO iNFO:

ID                               : 0
Format                           : MPEG-4 Visual
Format profile                   : Advanced Simple@L5
Format settings, BVOP            : 2
Format settings, QPel            : No
Format settings, GMC             : No warppoints
Format settings, Matrix          : Default (H.263)
Codec ID                         : XVID
Codec ID/Hint                    : XviD
Duration                         : 1h 45mn
Bit rate                         : 604 Kbps
Width                            : 652 pixels
Height                           : 272 pixels
Display aspect ratio             : 2.40:1
Frame rate                       : 25.000 fps
Color space                      : YUV
Chroma subsampling               : 4:2:0
Bit depth                        : 8 bits
Scan type                        : Progressive
Compression mode                 : Lossy
Bits/(Pixel*Frame)               : 0.136
Stream size                      : 454 MiB (57%)
Writing library                  : XviD 1.2.1 (UTC 2008-12-04)


AUDiO iNFO:

ID                               : 1
Format                           : AC-3
Format/Info                      : Audio Coding 3
Mode extension                   : CM (complete main)
Codec ID                         : 2000
Duration                         : 1h 45mn
Bit rate mode                    : Constant
Bit rate                         : 448 Kbps
Channel(s)                       : 2 channels
Channel positions                : Front: L R
Sampling rate                    : 48.0 KHz
Bit depth                        : 16 bits
Compression mode                 : Lossy
Stream size                      : 337 MiB (42%)
Alignment                        : Aligned on interleaves
Interleave, duration             : 64 ms (1.60 video frames)
Interleave, preload duration     : 192 ms


-------------------------------------------------------------------------------
                                 PLOT:
-------------------------------------------------------------------------------


The hot-headed young D'Artagnan along with three former legendary but now down on their luck Musketeers must unite and defeat a beautiful double agent and her villainous employer from seizing the French throne and engulfing Europe in war. 

 
-------------------------------------------------------------------------------
                                 CAST:
-------------------------------------------------------------------------------


Logan Lerman 

Matthew Macfadyen 

Ray Stevenson


-------------------------------------------------------------------------------
                               SCREENS:
-------------------------------------------------------------------------------


[img]http://i824.photobucket.com/albums/zz161/akosipalos/1-116.png[/img]

[img]http://i824.photobucket.com/albums/zz161/akosipalos/2-96.png[/img]

[img]http://i824.photobucket.com/albums/zz161/akosipalos/4-91.png[/img]

[img]http://i824.photobucket.com/albums/zz161/akosipalos/5-79.png[/img]

[img]http://i824.photobucket.com/albums/zz161/akosipalos/3-96.png[/img]


-------------------------------------------------------------------------------
                             Release Notes
-------------------------------------------------------------------------------

WE DONT RELEASE EVERYTHING TO OTHERS SITES YOU WANT MORE OF OUR STUFF COME FIND US AT .......

WE ARE LOOKING FOR SUPPLIERS BLURAY CAM R5 PRE RETAIL DVD GOT SOMETHING WE MIGHT LIKE WHEN YOU FIND US TELL US.......



ENCODER'S - ANYTHING AT ALL EMAIL US AT..... prestige@hushmail.me

** ** ** ** ** ** ** ** **

PRESTiGE is the level of respect at which one is regarded by others....RIzE Above Or Sink Below...


-------------------------------------------------------------------------------
                                 GREETZ:
-------------------------------------------------------------------------------


[b]| Twisted | Bigguy | CTFX | Whitestag13 | Jungledave | PA4U2C | mtyy | floridajoe | marsby | cld | Stortrapp | Stoner | Rock | Ulap | rizal | mannilim | musikera | centserick2 | AMB | RiZAL Team RG | rock3r | canislupus | sickie | fun2knytz and To All Encoders Past And Present...[/b]


[img]http://i824.photobucket.com/albums/zz161/akosipalos/PRESTiGE-3.png[/img]


[b][color=red]PRESTiGE[/color] is the level of respect at which one is regarded by others....RIzE Above Or Sink Below...[/b]


-------------------------------------------------------------------------------
Generated with Cool NFO Creator - http://fly.to/coolbeans
-------------------------------------------------------------------------------
[/pre]